PSF_ID_stride3.mot
nRows=6
nColumns=38

name PSF_ID_stride3.mot
datacolumns 38
datarows 6
range 1.6200000000 1.6450000000
endheader
time	pelvis_tilt_moment	pelvis_list_moment	pelvis_rotation_moment	pelvis_tx_force	pelvis_ty_force	pelvis_tz_force	hip_flexion_r_moment	hip_adduction_r_moment	hip_rotation_r_moment	knee_angle_r_moment	ankle_angle_r_moment	subtalar_angle_r_moment	mtp_angle_r_moment	hip_flexion_l_moment	hip_adduction_l_moment	hip_rotation_l_moment	knee_angle_l_moment	ankle_angle_l_moment	subtalar_angle_l_moment	mtp_angle_l_moment	lumbar_extension_moment	lumbar_bending_moment	lumbar_rotation_moment	arm_flex_r_moment	arm_add_r_moment	arm_rot_r_moment	elbow_flex_r_moment	pro_sup_r_moment	wrist_flex_r_moment	wrist_dev_r_moment	arm_flex_l_moment	arm_add_l_moment	arm_rot_l_moment	elbow_flex_l_moment	pro_sup_l_moment	wrist_flex_l_moment	wrist_dev_l_moment
        1.6200000000	        2.0733111198	      -21.5768197892	        7.5762073575	       72.8168000496	      -87.2768475359	      -53.0485937894	       -0.2242259972	      -57.4232845097	       29.3512485051	        7.6142106732	     -190.2372950320	       46.1807400426	       -0.0248888468	      -14.2541837796	        3.7651818970	       -3.0958207093	       -1.0636847643	        1.8613300036	       -0.0632287404	        0.1214066645	       11.2880979558	        7.5553690029	      -39.0027781051	       -0.6890425344	       -3.2752478317	       -3.8997481422	        4.2181672624	       -0.2104362927	       -0.3432758782	       -0.4321388060	        6.7667009510	        6.5094569974	        4.6171970335	        4.4471211176	        0.0455594755	        0.5674057567	       -0.2565847359	
        1.6250000000	        8.8835906235	      -33.5873579154	        8.7641474974	       66.0261149924	     -101.5203022105	      -28.2948880562	       -3.9676919960	      -58.3453793272	       30.1499518185	       -1.4786667521	     -179.1473341629	       43.2445793908	       -0.0332352106	      -17.2078939531	        1.7655486620	       -2.7049515851	       -1.6184613761	        1.8932345950	       -0.1106882607	        0.1208415288	        4.3795733581	        5.3064540767	      -39.9199657068	       -1.3119780007	       -3.3331862481	       -3.9168384029	        3.5368145528	       -0.2000752110	       -0.3616849627	       -0.3720938819	        6.4666292903	        6.0966280047	        4.5231875438	        3.8770438860	        0.0567390744	        0.5502270955	       -0.2030751321	
        1.6300000000	        8.3664031309	      -39.3894386978	        6.0367770849	       52.5688414924	     -103.1102319885	      -18.7639324437	       -2.5785912063	      -52.6392011698	       26.8752770244	       -7.5164473363	     -166.7583297118	       39.6342209747	       -0.0421852478	      -19.4931889743	       -0.4257233904	       -2.0891361850	       -2.1261229273	        1.9636923317	       -0.1824419654	        0.1227502897	       -1.8595491524	        3.7642520650	      -39.7764714438	       -1.6912631488	       -3.2323471770	       -3.8178040812	        2.9656095878	       -0.1888091618	       -0.3662462157	       -0.3207515707	        6.2468527975	        5.5943684448	        4.3141741160	        3.4172344881	        0.0629088332	        0.5240526610	       -0.1630425465	
        1.6350000000	        3.2219841305	      -36.9186745627	       -0.3200048364	       34.6154051242	      -94.3715992100	      -24.2155101932	        3.6122919454	      -41.1570171594	       20.0786319106	       -9.7673133949	     -153.3491878771	       35.7410094014	       -0.0508984672	      -21.1929359613	       -2.1817015775	       -1.3768770591	       -2.5999647506	        2.0604559566	       -0.2685308352	        0.1264571238	       -6.8380928371	        3.7214439638	      -38.9740211974	       -1.8530032851	       -3.0076267157	       -3.6296966256	        2.5107647589	       -0.1769012470	       -0.3597009730	       -0.2790006530	        6.0861633951	        5.0135228431	        4.0140010858	        3.0766749027	        0.0628535333	        0.4906149198	       -0.1373670831	
        1.6400000000	       -5.2899121319	      -30.3798625792	       -8.7334735524	       15.9040463390	      -73.1924223274	      -36.7855488302	       13.8032809745	      -26.6526599038	       11.6834630781	      -11.0395636137	     -139.2599792228	       31.9490730985	       -0.0580898822	      -22.6486100444	       -2.8834192233	       -0.6902781008	       -3.0783241992	        2.1690199567	       -0.3565467645	        0.1315179302	       -9.7312148001	        3.8554225866	      -37.4557555796	       -1.9417130717	       -2.6594684114	       -3.3595946836	        2.1378906722	       -0.1643974206	       -0.3428466032	       -0.2441928008	        5.9338282929	        4.3651649474	        3.6437567523	        2.8210054419	        0.0617067491	        0.4522066267	       -0.1222496384	
        1.6450000000	      -11.0838070045	      -21.1400402476	      -16.0598441406	        0.3314914027	      -43.8126250097	      -49.7423516115	       23.6358756677	      -13.6589145808	        4.8612668425	      -12.0294665505	     -124.7022525402	       28.5906987804	       -0.0624824047	      -24.0352113582	       -2.4789680814	       -0.1408161655	       -3.6009754535	        2.2736105710	       -0.4339078953	        0.1371748213	      -10.6333754672	        5.3646127466	      -35.5956661309	       -1.9974304717	       -2.1959891484	       -3.0131594058	        1.8372201387	       -0.1511348366	       -0.3165571595	       -0.2156452661	        5.7491692306	        3.6432985013	        3.2187429644	        2.6393190371	        0.0565630015	        0.4104970775	       -0.1156086249	
